/* XPM */
static char *image_xpm[] = {
/* width height ncolors chars_per_pixel */
"32 32 21 1",
"  c #000000",
". c #666666",
"+ c #ffcc99",
"@ c #ffffff",
"# c #cc9966",
"$ c #996633",
"% c #cccc66",
"& c #333333",
"* c #999999",
"= c #ffcc66",
"- c #999933",
"; c #cccc99",
"> c #666633",
", c #ffffcc",
"' c #cc9933",
") c #996666",
"! c #cccccc",
"~ c #ffcccc",
"{ c #cc9999",
"] c #ffff99",
"^ c #999966",
"@@@@@@@@@@@@!;%;;+;,@@@@@@@@@@@@",
"@@@@@@@@@!;#!!@@@@@~+;@@@@@@@@@@",
"@@@@@@@!^{!@@@@@@@@@!@;+!@@@@@@@",
"@@@@@@;^@@@@~#;;@+]+@@@,+;@@@@@@",
"@@@@!{*@@@@@#*.%!+.+,@@@@~;@@@@@",
"@@@@{{@@@@@@;..#,#&+@@@@@@,;@@@@",
"@@@;*@!;*;{;^.&#{;&+!@@@@@@!{@@@",
"@@~^@@@'^)^)^..^{^&{]=,@@@@@+!@@",
"@@^!@@!#&& & & &&&&&&.#+@@@@!;!@",
"@!;@@@@##^&&&>^^#^*&&&.%,@@@@;,@",
"!#!@@@@@!#&& )^^.^#%&&&)#@@@@!#@",
"@#@@@@@@@#.&&)^&&&&#*&&.+@@@@@;!",
";;@@@@@@!%&& ^)& & #)&&^#@@@@@{!",
";;@@@@@@@#.&&.{...{#.&.%,@@@@@~;",
"^!@@@@@@!%&& .^#^#^.&)#;!@@@@@!;",
";!@@@@@@@%. &&&&&&&&{'+!@@@@@@@#",
"^@@@@@@@@%&& .)^)^..&.^%!@@@@@!%",
";!@@@@@@@#. &.#)^){#.&&.%@@@@@,#",
"^!@@@@@@!%&& ))& & ^^& &^!@@@@;;",
"!;@@@@@@@%& &.^ &&&.;&&&^;@@@@;;",
"!#!@@@@@!%&& ^$& & ^^& &>;@@@@^!",
"@^,@@@@!@#& &>#.^.#^. &&#!@@@!;@",
"@;^@@@!%'^ & &>^>^>& & ^^@@@@{{@",
"@@%!@@@#& & & & &&& &>^^@@@@@^@@",
"@@{#!@!%$^$^$> ^>. ^-#*@@@@@^!@@",
"@@@{;@@;;;~;%>&-;^&^!@@@@@@*{@@@",
"@@@@^;@@@@@@#>&#*^ ^!@@@@@*^!@@@",
"@@@@@#;@@@@@+^.-!^.$@@@@@**!@@@@",
"@@@@@@^%!@@@{%^#;#-^!@@!^{!@@@@@",
"@@@@@@@!%#@@@@@@@@@@@!;^!@@@@@@@",
"@@@@@@@@!!#%{!!@!!;;^#;@@@@@@@@@",
"@@@@@@@@@@@!,;+%+;+!@@@@@@@@@@@@",
};