/* XPM */
static char *image_xpm[] = {
/* width height ncolors chars_per_pixel */
"64 64 24 1",
"  c #000000",
". c #996600",
"+ c #666666",
"@ c #ffcc99",
"# c #cccc33",
"$ c #ffffff",
"% c #cc9966",
"& c #ffff66",
"* c #996633",
"= c #cccc66",
"- c #333333",
"; c #999999",
"> c #ffcc66",
", c #999933",
"' c #cccc99",
") c #ffffcc",
"! c #cc9933",
"~ c #996666",
"{ c #cccccc",
"] c #ffcc33",
"^ c #ffcccc",
"/ c #cc9999",
"( c #ffff99",
"_ c #999966",
"$$$$$$$$$$$$$$$$$$$$$$$$$${${${^{${$$$$$$$$$$$$$$$$$$$$$$$$$$$$$",
"$$$$$$$$$$$$$$$$$$$$$$${{%=!=!>!>!>#>=({$$$$$$$$$$$$$$$$$$$$$$$$",
"$$$$$$$$$$$$$$$$$$$$;/_!,%/{{){${${$'@=>!@'${$$$$$$$$$$$$$$$$$$$",
"$$$$$$$$$$$$$$$$${{_%_'{$$$$$$$$$$$$$$$$$'>=({$$$$$$$$$$$$$$$$$$",
"$$$$$$$$$$$$$$$$;_*_;){$$$$$$$$$$$$$$$$$$${^=>={{$$$$$$$$$$$$$$$",
"$$$$$$$$$$$$$${_,_{{$$$$$$$$$$$$$$$$$$$$$$$$${@=@{$$$$$$$$$$$$$$",
"$$$$$$$$$$$${;*,_{$$$$$${{/{'{'){${)'){){$$$$${{%={$$$$$$$$$$$$$",
"$$$$$$$$$$${/,%{$$$$$$$$$,!,%!!%$@>#>>>>$$$$$$$$$'>'$$$$$$$$$$$$",
"$$$$$$$$$${_*/{$$$$$$$$${!_{;{!=$@!^{{'>{$$$$$$$$$'>'$$$$$$$$$$$",
"$$$$$$$$${%,'{$$$$$$$$$$$,'--+=%$'>{--)>$$$$$$$$$$${>=$$$$$$$$$$",
"$$$$$$$${_*'{$$$$$$$$$$${,_- +%={'!{ -'>{$$$$$$$$$$$'=%{$$$$$$$$",
"$$$$$$${/,{$$$$$$$$$$$$$$,'--+=%$'>'--)]$$$$$$$$$$$$${>'$$$$$$$$",
"$$$$$${;,'{$$${${${${${${,_--;,%{@!{--'>{$$$$$$$$$$$$$;>/$$$$$$$",
"$$$$$${!/{$$${/_%_%_%_%_%*'--+=!'%>{--)]){$$$$$$$$$$$$$'>/$$$$$$",
"$$$$${,%{$$$${!!*,*_*,*_*,;- +%=,%%{ -'>!>=^{$$$$$$$$$$$%={$$$$$",
"$$$$$_%{$$$$${=_;+++;+++;++---;+;;;---;;)@@>&'$$$$$$$$$${='{$$$$",
"$$$$;!;$$$$$${!%-- - - - - --- ----------++{=>=$$$$$$$$$$'!{$$$$",
"$$${=_$$$$$$${=_+---- ----------------------;'>'$$$$$$$$${@=$$$$",
"$$$'!/$$$$$$${!%_%_+ - - - ++;+;+;++---------+=>/$$$$$$$$$;>;$$$",
"$$$_'{$$$$$$${=%=!!_+-----+/%_%!=%==@';-------;=@{$$$$$$$$$%'{$$",
"$$;!;$$$$$$$$${{{{,%-- - --%,'_%%'%=!#%{-------'#{$$$$$$$$$'={$$",
"$$'%{$$$$$$$$$$$${=%+ --- +%%;++++++;'>=;------;>/$$$$$$$$${>_$$",
"${,%{$$$$$$$$$$$$$_%+- - --/*; - - - -']'--- --;!'{$$$$$$$$$_={$",
"${=;$$$$$$$$$$$$$$=%+-----+%%;--------;!@+-----;>'$$$$$$$$$${>{$",
"$/!{$$$$$$$$$$$$$$_%+- - --%,; --- ---+==+-----/#'$$$$$$$$$${>_$",
"$_={$$$$$$$$$$$$${=%+ --- +%%+--------{!^-----+'>{$$$$$$$$$$$%'{",
"{%_$$$$$$$$$$$$$$$%=-- - --'*; - - --'%=;--- -;>%$$$$$$$$$$${%%{",
"{%/$$$$$$$$$$$$$${=%+-- --+%%{{;{/{'@!='+----;>#{$$$$$$$$$$$$;>{",
";=;$$$$$$$$$$$$$$$%=+- - --%*!.,*!.!,';+-- +;>!'{$$$$$$$$$$$$'!{",
"'!{$$$$$$$$$$$$$${=%+ --- -;'/{'''{;;+---+{'>!{$$$$$$$$$$$$$$;>;",
";!;$$$$$$$$$$$$$$$%=-- - - - - - - - - -+'!#%{{$$$$$$$$$$$$$${!;",
"'%{$$$$$$$$$$$$$$$==+-- ----------------;'=!>={$$$$$$$$$$$$$${>;",
";=;$$$$$$$$$$$$$$$%=+- - - ++;+;+;++-- --++'%>!'{$$$$$$$$$$$${!;",
";!{$$$$$$$$$$$$$${@=+ - - +'%,%,%,%_'''-----+;@!'{$$$$$$$$$$$;>;",
";#;$$$$$$$$$$$$$$$%=-- - --=*%_'_%_%,!,'-- - -+=!'$$$$$$$$$$$;!;",
"{!/$$$$$$$$$$$$$${=%+-- --+%=;+-+-++;'=,{------+>%{$$$$$$$$$$;>;",
";=_$$$$$$$$$$$$$$$%=+- - --%,; - - - -_%,; - - -_=_$$$$$$$$$$;!{",
"{,/$$$$$$$$$$$$$${'=+ - - +%%+--- --- -'!;------;!'{$$$$$$$$$_={",
"{__{$$$$$$$$$$$$${%=-- - --=,+ - - - - /*' - - --%!{$$$$$$$${%_$",
"$_=;$$$$$$$$$$$$${==+ - --+%=+- --- ---;!'------+%={$$$$$$$${=;$",
"$/!;$$$$$$$$$$$$$$%=-- - --=,; - - - --',; - - --=!{$$$$$$$$;>;$",
"${=_$$$$$$$$$$$$${'=+ - - +%%+- - ----{,%+--- --+!={$$$$$$${%%{$",
"$$_%;$$$$$$$$$$$${%=-  - --',;-----++/,!;- - - -+!_$$$$$$$${!_{$",
"$$'!/$$$$$$$$${{${=%+ - - -%=%'_'%'_%,%;--- ----=!{$$$$$$$$;>;$$",
"$${%_{$$$$$$${_=!=!/-- - - ;_%,!,%,%_'+- - - --;!%{$$$$$$${%_{$$",
"$$$;>;$$$$$$$;>%=%/-- - - - ++;+;+;++ - - - --;!%;$$$$$$$$/!;$$$",
"$$${,%{$$$$$$;!%-- -   -   - - - - - - - - --;,!;$$$$$$$${,%{$$$",
"$$$$;!;$$$$$$;>_- - - - - - - - - - - - --+;%,%;$$$$$$$$$;!;$$$$",
"$$$${_!;$$$$${!_-+-+-+-+++-- --++++- --;_%*!,;{$$$$$$$$$;%~{$$$$",
"$$$$$;=_{$$$$;>!=!>%=!>!=!'---',%,%;- ',!*%;{{$$$$$$$$${_,{$$$$$",
"$$$$$$_=~$$$${_%,%_%,%_=_!_- +,!__*; -_,_{{$$$$$$$$$$${_*;$$$$$$",
"$$$$$$$_>;$$$$${${${${${{!'--+%_$_!;--/*{$$$$$$$$$$$$$;,;{$$$$$$",
"$$$$$$${_=_$$$$$$$$$$$$${#_- +,%{_.; -_,;$$$$$$$$$$${;*_{$$$$$$$",
"$$$$$$$${_>;$$$$$$$$$$$${!'---%_$_!+- /*'$$$$$$$$$$$;*_{$$$$$$$$",
"$$$$$$$$${_=~$$$$$$$$$$$;!_- +,%{_*; -_,;$$$$$$$$${;*_;$$$$$$$$$",
"$$$$$$$$$${_>_{$$$$$$$$${!=;/;%,$_!;';;*{$$$$$$$${;*_{$$$$$$$$$$",
"$$$$$$$$$$${_>_;$$$$$$$${=!#!!,%{/.,.,.,;$$$$$$$;_*_{$$$$$$$$$$$",
"$$$$$$$$$$$$$_>=/{$$$$$$$;'/';''$;{/';{/{$$$$$$;%*;{$$$$$$$$$$$$",
"$$$$$$$$$$$$$$;%!=;{{$$$$$$$$$$$$$$$$$$$$$$${;,!~{$$$$$$$$$$$$$$",
"$$$$$$$$$$$$$$${'%>%'{$$$$$$$$$$$$$$$$$$$${;%,%;$$$$$$$$$$$$$$$$",
"$$$$$$$$$$$$$$$$${_%#>_;;{{$$$$$$$$$$${{;/,!_/{$$$$$$$$$$$$$$$$$",
"$$$$$$$$$$$$$$$$$$${{_@>>%';{;{{{{{;'_'!=_';$$$$$$$$$$$$$$$$$$$$",
"$$$$$$$$$$$$$$$$$$$$$${{_%%>#>=>!>!>!=_';{{$$$$$$$$$$$$$$$$$$$$$",
"$$$$$$$$$$$$$$$$$$$$$$$$$$${{'{;{'{{${$$$$$$$$$$$$$$$$$$$$$$$$$$",
};