/* XPM */
static char *image_xpm[] = {
/* width height ncolors chars_per_pixel */
"16 16 15 1",
"  c #000000",
". c #666666",
"+ c #ffffff",
"@ c #cc9966",
"# c #333333",
"$ c #999999",
"% c #cccc99",
"& c #666633",
"* c #ffffcc",
"= c #996666",
"- c #cccccc",
"; c #663333",
"> c #ffcccc",
", c #cc9999",
"' c #999966",
"++++--%>-*-+++++",
"+++%-+*-+>+>*+++",
"++,+++''%'*+--++",
"+%+%%$'.%=*+++*+",
"--+%&##.&.#@*+%+",
"-+++%#...'.#*++%",
",+++%##.#'#.-++-",
"-+++*##&=&'%+++%",
"%+++%##'='#'-++%",
"%+++>#.&##=#%++%",
",+++%##=#=##'+--",
"+%+%= #;.##&++--",
"+---',&&=&$+++$+",
"++%-++,&,&+++$++",
"+++-%+->%%--$+++",
"+++++--%*%>*++++",
};